<svg width="1000" height="850" viewBox="0 0 1000 850" xmlns="http://www.w3.org/2000/svg">
<style>
  text { font-family: system-ui, -apple-system, sans-serif; fill: #e0e0e0; }
  .title { font-size: 28px; font-weight: bold; fill: #ffffff; }
  .subtitle { font-size: 16px; fill: #a0a0ff; }
  .label { font-size: 12px; fill: #888; }
  .axis-label { font-size: 14px; font-weight: bold; fill: #aaa; }
  .callout { font-size: 20px; font-weight: bold; fill: #00ffff; }
  .abandoned { font-size: 18px; font-weight: bold; fill: #ff4444; }
</style>
<rect width="100%" height="100%" fill="#0a0a1a" />
<text x="500.0" y="50" text-anchor="middle" class="title">Perseus Titan Benchmark — Orientation Tax vs Pre-Resolved Context</text>
<text x="500.0" y="80" text-anchor="middle" class="subtitle">Cold path abandoned at 50K+ queries (test harness gave up). Perseus warm: still sub-second.</text>
<text x="500.0" y="120" text-anchor="middle" class="callout">3.1B tokens/year saved. 449.8× speedup. $40,625/yr → $0.</text>
<line x1="100.0" y1="180" x2="100.0" y2="450" stroke="#222" stroke-width="1" />
<text x="100.0" y="475" text-anchor="middle" class="label">100</text>
<line x1="300.0" y1="180" x2="300.0" y2="450" stroke="#222" stroke-width="1" />
<text x="300.0" y="475" text-anchor="middle" class="label">1k</text>
<line x1="500.0" y1="180" x2="500.0" y2="450" stroke="#222" stroke-width="1" />
<text x="500.0" y="475" text-anchor="middle" class="label">10k</text>
<line x1="700.0" y1="180" x2="700.0" y2="450" stroke="#222" stroke-width="1" />
<text x="700.0" y="475" text-anchor="middle" class="label">100k</text>
<line x1="900.0" y1="180" x2="900.0" y2="450" stroke="#222" stroke-width="1" />
<text x="900.0" y="475" text-anchor="middle" class="label">1M</text>
<line x1="100" y1="450.0" x2="900" y2="450.0" stroke="#222" stroke-width="1" />
<text x="90" y="455.0" text-anchor="end" class="label">0.1s</text>
<line x1="100" y1="396.0" x2="900" y2="396.0" stroke="#222" stroke-width="1" />
<text x="90" y="401.0" text-anchor="end" class="label">1s</text>
<line x1="100" y1="342.0" x2="900" y2="342.0" stroke="#222" stroke-width="1" />
<text x="90" y="347.0" text-anchor="end" class="label">10s</text>
<line x1="100" y1="288.0" x2="900" y2="288.0" stroke="#222" stroke-width="1" />
<text x="90" y="293.0" text-anchor="end" class="label">100s</text>
<line x1="100" y1="234.0" x2="900" y2="234.0" stroke="#222" stroke-width="1" />
<text x="90" y="239.0" text-anchor="end" class="label">1000s</text>
<line x1="100" y1="180.0" x2="900" y2="180.0" stroke="#222" stroke-width="1" />
<text x="90" y="185.0" text-anchor="end" class="label">10000s</text>
<text x="30" y="315.0" text-anchor="middle" transform="rotate(-90, 30, 315.0)" class="axis-label">Render Time (seconds, log)</text>
<text x="500.0" y="510" text-anchor="middle" class="axis-label">Scale (Directives/Queries, log)</text>
<path d="M 100.0,386.0419957877347 L 239.79400086720375,352.35660746209203 L 300.0,336.65642673632266 L 439.79400086720375,299.2847250188793 L 500.0,283.08742326488345 L 560.2059991327963,266.89598775214074 L 639.7940008672037,245.49385890443585" fill="none" stroke="#ff4444" stroke-width="3" />
<path d="M 100.0,426.96839188631293 L 239.79400086720375,426.02158102042387 L 300.0,425.19280566100156 L 439.79400086720375,419.2538088807875 L 500.0,412.8734360944097 L 560.2059991327963,404.0320491691699 L 639.7940008672037,388.7544361908546 L 900.0,379.2455082018478" fill="none" stroke="#00ffff" stroke-width="3" />
<circle cx="639.7940008672037" cy="245.49385890443585" r="6" fill="#ff4444" />
<text x="649.7940008672037" y="235.49385890443585" class="abandoned">ABANDONED (TIMEOUT)</text>
<rect x="700" y="200" width="15" height="3" fill="#ff4444" />
<text x="720" y="206" class="label">Cold LLM Path</text>
<rect x="700" y="225" width="15" height="3" fill="#00ffff" />
<text x="720" y="231" class="label">Perseus Warm</text>
<text x="500.0" y="520" text-anchor="middle" class="axis-label">Annual API Cost (6.25M Directives/Year)</text>
<rect x="120" y="572.3611111111111" width="100" height="207.63888888888889" fill="#ff8800" rx="4" />
<text x="170.0" y="805" text-anchor="middle" class="label">Claude Opus 4.7</text>
<text x="170.0" y="562.3611111111111" text-anchor="middle" class="label" style="fill:white; font-weight:bold;">$40,625</text>
<rect x="260" y="655.4166666666666" width="100" height="124.58333333333333" fill="#ff4444" rx="4" />
<text x="310.0" y="805" text-anchor="middle" class="label">Claude Sonnet 4.6</text>
<text x="310.0" y="645.4166666666666" text-anchor="middle" class="label" style="fill:white; font-weight:bold;">$24,375</text>
<rect x="400" y="648.2291666666667" width="100" height="131.77083333333331" fill="#ff8800" rx="4" />
<text x="450.0" y="805" text-anchor="middle" class="label">GPT-5</text>
<text x="450.0" y="638.2291666666667" text-anchor="middle" class="label" style="fill:white; font-weight:bold;">$25,781</text>
<rect x="540" y="704.1319444444445" width="100" height="75.86805555555556" fill="#ff4444" rx="4" />
<text x="590.0" y="805" text-anchor="middle" class="label">Gemini 2.5 Pro</text>
<text x="590.0" y="694.1319444444445" text-anchor="middle" class="label" style="fill:white; font-weight:bold;">$14,844</text>
<rect x="680" y="778" width="100" height="2" fill="#00ffff" rx="4" />
<text x="730.0" y="805" text-anchor="middle" class="label">Perseus</text>
<text x="730.0" y="768" text-anchor="middle" class="label" style="fill:white; font-weight:bold;">$0</text>
</svg>